<svg width="255" height="255" viewBox="0 0 255 255" fill="none" xmlns="http://www.w3.org/2000/svg">
<g filter="url(#filter0_d_3_16)">
<circle cx="124.091" cy="157.71" r="71.5909" fill="#F9F9F9" stroke="#F9F9F9" stroke-width="6.81818"/>
<path d="M194.629 46.2753C190.002 87.834 154.607 99.6737 137.488 100.399C139.416 83.0826 154.743 44.0361 194.629 46.2753Z" stroke="#F9F9F9" stroke-width="13.6364"/>
<path d="M141.074 99.7305C103.595 78.7833 116.569 45.6674 127.74 31.7278C143.129 40.448 159.503 60.1179 141.074 99.7305Z" stroke="#F9F9F9" stroke-width="13.6364"/>
<path d="M194.629 46.2753C190.002 87.8339 154.607 99.6737 137.488 100.399C139.416 83.0826 154.743 44.0361 194.629 46.2753Z" fill="url(#paint0_linear_3_16)"/>
<path d="M141.074 99.7305C103.595 78.7833 116.569 45.6673 127.74 31.7278C143.129 40.448 159.503 60.1179 141.074 99.7305Z" fill="#CDF0EA"/>
<circle cx="124.091" cy="157.71" r="68.1818" fill="url(#paint1_linear_3_16)"/>
</g>
<defs>
<filter id="filter0_d_3_16" x="43.6364" y="21.8182" width="168.771" height="222.273" filterUnits="userSpaceOnUse" color-interpolation-filters="sRGB">
<feFlood flood-opacity="0" result="BackgroundImageFix"/>
<feColorMatrix in="SourceAlpha" type="matrix" values="0 0 0 0 0 0 0 0 0 0 0 0 0 0 0 0 0 0 127 0" result="hardAlpha"/>
<feOffset dy="5.45455"/>
<feGaussianBlur stdDeviation="2.72727"/>
<feComposite in2="hardAlpha" operator="out"/>
<feColorMatrix type="matrix" values="0 0 0 0 0 0 0 0 0 0 0 0 0 0 0 0 0 0 0.25 0"/>
<feBlend mode="normal" in2="BackgroundImageFix" result="effect1_dropShadow_3_16"/>
<feBlend mode="normal" in="SourceGraphic" in2="effect1_dropShadow_3_16" result="shape"/>
</filter>
<linearGradient id="paint0_linear_3_16" x1="130.431" y1="86.3778" x2="199.583" y2="57.2857" gradientUnits="userSpaceOnUse">
<stop stop-color="#BEAEE2"/>
<stop offset="0.607889" stop-color="#CDF0EA"/>
</linearGradient>
<linearGradient id="paint1_linear_3_16" x1="174.214" y1="200.455" x2="76.0324" y2="109.091" gradientUnits="userSpaceOnUse">
<stop stop-color="#BEAEE2"/>
<stop offset="0.739658" stop-color="#F7DBF0"/>
</linearGradient>
</defs>
</svg>
